<?xml version="1.0" encoding="UTF-8" standalone="no"?>
<!DOCTYPE svg PUBLIC "-//W3C//DTD SVG 1.1//EN" "http://www.w3.org/Graphics/SVG/1.1/DTD/svg11.dtd">
<svg width="100%" height="100%" viewBox="0 0 485 374" version="1.1" xmlns="http://www.w3.org/2000/svg" xmlnsXlink="http://www.w3.org/1999/xlink" xmlSpace="preserve" xmlnsSerif="http://www.serif.com/" style="fill-rule:evenodd;clip-rule:evenodd;stroke-linejoin:round;stroke-miterlimit:1.5;">
    <g transform="matrix(1,0,0,1,-160.625,-113)">
        <g transform="matrix(1,0,0,1,184,0)">
            <path d="M274,113C377.208,113 461,196.792 461,300C461,403.208 377.208,487 274,487C170.792,487 87,403.208 87,300C87,196.792 170.792,113 274,113ZM274,188.481C335.549,188.481 385.519,238.451 385.519,300C385.519,361.549 335.549,411.519 274,411.519C212.451,411.519 162.481,361.549 162.481,300C162.481,238.451 212.451,188.481 274,188.481Z" style="fill:rgb(42,147,209);"/>
        </g>
        <g transform="matrix(1,0,0,1,-1,-0.5)">
            <path d="M199,446L199,155" style="fill:none;stroke:rgb(49,49,131);stroke-width:74.75px;"/>
        </g>
    </g>
</svg>
